<mxfile host="app.diagrams.net" modified="2023-12-19T19:36:23.210Z" agent="Mozilla/5.0 (X11; Ubuntu; Linux x86_64; rv:120.0) Gecko/20100101 Firefox/120.0" version="22.1.11" etag="XLAGZjpQOgmGSBuThpUt" type="github">
  <diagram name="Page-1" id="9XqEXqh5rK-TJhBCzUel">
    <mxGraphModel>
      <root>
        <mxCell id="0" />
        <mxCell id="1" parent="0" />
      </root>
    </mxGraphModel>
  </diagram>
</mxfile>
